<svg width="137" height="137" viewBox="0 0 137 137" fill="none" xmlns="http://www.w3.org/2000/svg">
<path d="M22.8334 114.167C19.6938 114.167 17.007 113.05 14.7732 110.816C12.5393 108.582 11.4205 105.893 11.4167 102.75V34.25C11.4167 31.1104 12.5355 28.4237 14.7732 26.1898C17.0109 23.956 19.6976 22.8371 22.8334 22.8333H114.167C117.306 22.8333 119.995 23.9522 122.233 26.1898C124.47 28.4275 125.587 31.1142 125.583 34.25V102.75C125.583 105.89 124.466 108.578 122.233 110.816C119.999 113.054 117.31 114.17 114.167 114.167H22.8334ZM68.5 74.2083L114.167 45.6667V34.25L68.5 62.7917L22.8334 34.25V45.6667L68.5 74.2083Z" fill="#525252"/>
</svg>
