<svg width="135" height="135" viewBox="0 0 135 135" fill="none" xmlns="http://www.w3.org/2000/svg">
<path fill-rule="evenodd" clip-rule="evenodd" d="M113.4 86.2874L100.406 73.1249L95.6248 68.3438L88.9874 70.5375L76.1062 74.8688L59.9624 58.6688L64.2373 45.7874L66.3187 39.3749L61.425 34.425L48.4312 21.2625L40.4435 13.3313L32.5123 21.2625L30.8812 22.8938C18.2658 35.587 14.6765 54.694 21.8249 71.0999C26.0132 80.2594 31.8474 88.5722 39.0374 95.6251C46.107 102.708 54.4206 108.428 63.5623 112.5C79.955 119.764 99.1298 116.162 111.769 103.444L113.4 101.812L121.387 93.8812L113.4 86.2874ZM103.837 95.6251C100.848 98.6211 97.2973 100.998 93.3881 102.62C89.479 104.241 85.2883 105.076 81.0561 105.075C76.6152 105.083 72.2238 104.143 68.175 102.319C60.2376 98.7421 53.0438 93.7045 46.9686 87.4687C40.7652 81.3876 35.7317 74.2186 32.1186 66.3188C26.7664 54.1622 29.4495 39.9653 38.8686 30.5999L40.4435 29.025L53.4937 42.2437L48.7687 56.2499C48.232 57.8657 48.1528 59.5984 48.54 61.2564C48.9272 62.9144 49.7656 64.4328 50.9625 65.6438L68.9623 83.5874C70.6796 85.3032 73.0037 86.2733 75.4312 86.2874C76.4228 86.28 77.4081 86.1285 78.3561 85.8376L92.475 81.1126L105.469 94.1063L103.837 95.6251Z" fill="#525252"/>
</svg>
